<mxfile host="app.diagrams.net" modified="2024-05-07T01:32:54.571Z" agent="Mozilla/5.0 (Windows NT 10.0; Win64; x64) AppleWebKit/537.36 (KHTML, like Gecko) Chrome/124.0.0.0 Safari/537.36 Edg/124.0.0.0" version="24.3.1" etag="0PK6bZDJExETEEjOwkg2" type="github">
  <diagram name="Page-1" id="IEJb93c31XS6iEwe96Ke">
    <mxGraphModel>
      <root>
        <mxCell id="0" />
        <mxCell id="1" parent="0" />
      </root>
    </mxGraphModel>
  </diagram>
</mxfile>
